<svg xmlns="http://www.w3.org/2000/svg" width="210.892" height="147.485" viewBox="0 0 210.892 147.485">
  <g id="Grupo_16" data-name="Grupo 16" transform="translate(-1408.5 930.999)">
    <path id="Caminho_244" data-name="Caminho 244" d="M87.759,16.085A36.97,36.97,0,0,1,114.5,4.615a37.342,37.342,0,0,1,32.536,19.268,45.017,45.017,0,0,1,18.389-3.9,45.825,45.825,0,1,1-8.958,90.758A33.251,33.251,0,0,1,112.921,124.4a37.93,37.93,0,0,1-70.489-1.712A35.2,35.2,0,0,1,0,87.906,35.578,35.578,0,0,1,17.6,57.124a40.952,40.952,0,0,1,70.16-41.039" transform="translate(1408.5 -931)" fill="#008dd1"/>
    <g id="Grupo_15" data-name="Grupo 15" transform="translate(1437.191 -878.538)">
      <path id="Caminho_245" data-name="Caminho 245" d="M64.526,141.652c-.125.327.044.394.085.449a11.881,11.881,0,0,0,1.132.685,12.1,12.1,0,0,0,5.934,1.385c4.07,0,6.6-2.163,6.6-5.648v-.067c0-3.223-2.855-4.395-5.529-5.24l-.35-.111c-2.018-.656-3.759-1.222-3.759-2.551v-.067c0-1.137,1.018-1.974,2.595-1.974a11.717,11.717,0,0,1,5.17,1.324s.4.254.539-.128c.079-.207.756-2.03.829-2.228a.379.379,0,0,0-.2-.457,11.549,11.549,0,0,0-5.832-1.566l-.405,0c-3.727,0-6.328,2.251-6.328,5.476V131c0,3.4,2.87,4.5,5.558,5.27l.432.134c1.96.6,3.648,1.12,3.648,2.5v.07c0,1.259-1.1,2.2-2.866,2.2a9.606,9.606,0,0,1-5.243-1.508c-.286-.17-.449-.289-.671-.423a.326.326,0,0,0-.537.184Z" transform="translate(-64.481 -118.121)" fill="#fff"/>
      <path id="Caminho_246" data-name="Caminho 246" d="M198.434,141.652c-.125.327.044.394.085.449a11.883,11.883,0,0,0,1.132.685,12.1,12.1,0,0,0,5.934,1.385c4.07,0,6.6-2.163,6.6-5.648v-.067c0-3.223-2.855-4.395-5.529-5.24l-.35-.111c-2.018-.656-3.759-1.222-3.759-2.551v-.067c0-1.137,1.018-1.974,2.595-1.974a11.717,11.717,0,0,1,5.17,1.324s.4.254.539-.128c.079-.207.756-2.03.829-2.228a.379.379,0,0,0-.2-.457,11.54,11.54,0,0,0-5.832-1.566l-.405,0c-3.727,0-6.328,2.251-6.328,5.476V131c0,3.4,2.873,4.5,5.558,5.27l.432.134c1.96.6,3.651,1.12,3.651,2.5v.07c0,1.259-1.1,2.2-2.87,2.2a9.612,9.612,0,0,1-5.243-1.508c-.286-.17-.455-.283-.671-.423a.345.345,0,0,0-.533.184Z" transform="translate(-133.324 -118.121)" fill="#fff"/>
      <path id="Caminho_247" data-name="Caminho 247" d="M277.466,131.239a8.174,8.174,0,0,0-1.545-2.951,7.43,7.43,0,0,0-2.61-1.983,9.428,9.428,0,0,0-7.284,0,7.418,7.418,0,0,0-2.607,1.986,8.142,8.142,0,0,0-1.545,2.948,13.528,13.528,0,0,0,0,7.3,8.174,8.174,0,0,0,1.545,2.951,7.279,7.279,0,0,0,2.61,1.968,9.665,9.665,0,0,0,7.281,0,7.309,7.309,0,0,0,2.61-1.968,8.173,8.173,0,0,0,1.545-2.951,13.542,13.542,0,0,0,0-7.3m-3.4,3.651a8.382,8.382,0,0,1-1.091,4.619,3.658,3.658,0,0,1-3.307,1.616,3.616,3.616,0,0,1-3.292-1.616,10.428,10.428,0,0,1,0-9.22,4.213,4.213,0,0,1,6.6,0,8.3,8.3,0,0,1,1.091,4.6" transform="translate(-165.534 -118.186)" fill="#fff"/>
      <path id="Caminho_248" data-name="Caminho 248" d="M343.924,140.578a.323.323,0,0,0-.435-.2,7.7,7.7,0,0,1-1.581.449,11.878,11.878,0,0,1-1.86.134,5.188,5.188,0,0,1-3.887-1.455,6.5,6.5,0,0,1-1.458-4.645,7.206,7.206,0,0,1,1.3-4.473,4.439,4.439,0,0,1,3.771-1.659,11.406,11.406,0,0,1,3.589.513s.268.117.394-.233c.3-.829.519-1.415.837-2.321a.306.306,0,0,0-.213-.4,13.242,13.242,0,0,0-2.266-.574,17.29,17.29,0,0,0-2.549-.169,9.264,9.264,0,0,0-3.785.729,7.833,7.833,0,0,0-2.738,1.98A8.38,8.38,0,0,0,331.4,131.2a11.669,11.669,0,0,0-.554,3.659,9.762,9.762,0,0,0,2.26,6.76c1.5,1.677,3.762,2.525,6.707,2.525a13.876,13.876,0,0,0,4.811-.857.31.31,0,0,0,.137-.4Z" transform="translate(-199.844 -118.168)" fill="#fff" fill-rule="evenodd"/>
      <path id="Caminho_249" data-name="Caminho 249" d="M380.025,130.6a7.147,7.147,0,0,0-1.47-2.692,6.709,6.709,0,0,0-2.184-1.665,8.372,8.372,0,0,0-3.295-.668,9.014,9.014,0,0,0-3.8.738,7.549,7.549,0,0,0-2.648,2.021,8.329,8.329,0,0,0-1.557,2.986,12.919,12.919,0,0,0-.5,3.668,12.312,12.312,0,0,0,.522,3.671,7.363,7.363,0,0,0,4.558,4.841,11.542,11.542,0,0,0,4.175.674,11.977,11.977,0,0,0,5.792-1.149c.128-.073.248-.2.1-.551l-.756-2.106a.331.331,0,0,0-.432-.2,11.087,11.087,0,0,1-4.721.849,4.706,4.706,0,0,1-5.272-5.176l11.5.008a.339.339,0,0,0,.335-.3,12.337,12.337,0,0,0-.344-4.951m-11.436,2.4a6.692,6.692,0,0,1,.93-2.712,3.661,3.661,0,0,1,3.286-1.671,3.568,3.568,0,0,1,3.222,1.671,5.67,5.67,0,0,1,.764,2.715Z" transform="translate(-218.564 -118.19)" fill="#fff" fill-rule="evenodd"/>
      <path id="Caminho_250" data-name="Caminho 250" d="M173.03,130.6a7.146,7.146,0,0,0-1.47-2.692,6.681,6.681,0,0,0-2.184-1.665,8.381,8.381,0,0,0-3.292-.668,9.017,9.017,0,0,0-3.8.738,7.548,7.548,0,0,0-2.648,2.021,8.329,8.329,0,0,0-1.557,2.986,12.9,12.9,0,0,0-.5,3.668,12.3,12.3,0,0,0,.522,3.671,7.363,7.363,0,0,0,4.558,4.841,11.541,11.541,0,0,0,4.175.674,11.977,11.977,0,0,0,5.792-1.149c.128-.073.248-.2.1-.551l-.756-2.106a.331.331,0,0,0-.432-.2,11.089,11.089,0,0,1-4.721.849,4.706,4.706,0,0,1-5.272-5.176l11.5.008a.339.339,0,0,0,.335-.3,12.338,12.338,0,0,0-.344-4.951m-11.437,2.4a6.744,6.744,0,0,1,.927-2.712,3.673,3.673,0,0,1,3.29-1.671,3.573,3.573,0,0,1,3.225,1.671,5.7,5.7,0,0,1,.761,2.715Z" transform="translate(-112.281 -118.19)" fill="#fff" fill-rule="evenodd"/>
      <path id="Caminho_251" data-name="Caminho 251" d="M109.408,132.433c-.467-.035-1.071-.052-1.794-.052a10.864,10.864,0,0,0-2.834.364,7.434,7.434,0,0,0-2.4,1.111A5.381,5.381,0,0,0,100.1,138.4a5.971,5.971,0,0,0,.528,2.627,4.729,4.729,0,0,0,1.5,1.8,6.308,6.308,0,0,0,2.341,1.014,13.715,13.715,0,0,0,3.048.312,21,21,0,0,0,3.493-.292c1.128-.192,2.511-.472,2.9-.562s.8-.2.8-.2a.361.361,0,0,0,.262-.376l-.006-10.515c0-2.31-.615-4.018-1.825-5.08a7.833,7.833,0,0,0-5.284-1.589,19,19,0,0,0-3.083.283,11.047,11.047,0,0,0-3.543,1.3.359.359,0,0,0-.105.458l.813,2.187a.293.293,0,0,0,.379.186,1.431,1.431,0,0,0,.19-.1,11.7,11.7,0,0,1,5.01-1.166,4.663,4.663,0,0,1,2.843.744c.627.484.945,1.207.945,2.741v.487c-.986-.143-1.9-.225-1.9-.225m-4.575,8.08a2.213,2.213,0,0,1-.662-.682,2.739,2.739,0,0,1-.347-1.5,2.518,2.518,0,0,1,1.027-2.225,5.143,5.143,0,0,1,3.336-.831,23.251,23.251,0,0,1,3.123.266v5.229a23.572,23.572,0,0,1-3.106.411,5.164,5.164,0,0,1-3.371-.671" transform="translate(-84.249 -118.166)" fill="#fff"/>
      <path id="Caminho_252" data-name="Caminho 252" d="M316.244,126.767a.312.312,0,0,0-.172-.414,10.426,10.426,0,0,0-1.928-.33,5.708,5.708,0,0,0-2.966.478,5.156,5.156,0,0,0-1.942,1.435l0-1.4a.331.331,0,0,0-.33-.347h-2.948a.331.331,0,0,0-.33.347v17.155a.346.346,0,0,0,.35.347H309a.346.346,0,0,0,.347-.347v-8.57a10.034,10.034,0,0,1,.382-3.018,4.275,4.275,0,0,1,1.006-1.691,3.487,3.487,0,0,1,1.423-.854,5.55,5.55,0,0,1,1.54-.219,6.34,6.34,0,0,1,1.263.158c.224.023.347-.114.423-.312.2-.525.758-2.1.863-2.414" transform="translate(-188.68 -118.426)" fill="#fff" fill-rule="evenodd"/>
      <path id="Caminho_253" data-name="Caminho 253" d="M240.995,109.363a9.131,9.131,0,0,0-1.137-.268,8.784,8.784,0,0,0-1.563-.122,6.584,6.584,0,0,0-4.87,1.75,9.511,9.511,0,0,0-2.312,5.214l-.14.779h-2.61a.387.387,0,0,0-.385.335l-.428,2.391c-.032.227.067.37.373.37h2.543l-2.581,14.394a17.952,17.952,0,0,1-.688,2.834,5.765,5.765,0,0,1-.8,1.636,2.141,2.141,0,0,1-1.053.814,4.331,4.331,0,0,1-1.353.193,5.163,5.163,0,0,1-.922-.1,2.714,2.714,0,0,1-.621-.2.319.319,0,0,0-.417.184c-.093.245-.77,2.108-.852,2.339a.34.34,0,0,0,.178.457,8.649,8.649,0,0,0,1.05.306,6.919,6.919,0,0,0,1.685.161,8.4,8.4,0,0,0,2.823-.437,5.34,5.34,0,0,0,2.126-1.481,7.651,7.651,0,0,0,1.493-2.575,22.035,22.035,0,0,0,1.012-3.864l2.589-14.659h3.788a.386.386,0,0,0,.385-.336l.429-2.391c.029-.227-.067-.37-.373-.37h-3.677a15.4,15.4,0,0,1,.607-2.592,3.322,3.322,0,0,1,.808-1.228,2.41,2.41,0,0,1,.962-.6,4.055,4.055,0,0,1,1.233-.175,4.932,4.932,0,0,1,.945.093c.356.076.5.117.589.143.373.117.423.006.5-.175l.878-2.415a.307.307,0,0,0-.21-.4" transform="translate(-144.714 -108.972)" fill="#fff" fill-rule="evenodd"/>
      <path id="Caminho_254" data-name="Caminho 254" d="M145.656,134.7a.334.334,0,0,1-.33.35h-3.05a.334.334,0,0,1-.329-.35V110.153a.332.332,0,0,1,.329-.347h3.05a.332.332,0,0,1,.33.347Z" transform="translate(-104.526 -109.435)" fill="#fff" fill-rule="evenodd"/>
    </g>
  </g>
</svg>
