<svg xmlns="http://www.w3.org/2000/svg" width="21.5" height="17.594" viewBox="0 0 21.5 17.594">
  <path id="Group_3045" data-name="Group 3045" d="M21,1.01A17.943,17.943,0,0,1,18,2a3.789,3.789,0,0,0-4.38-.737A3.933,3.933,0,0,0,11,5V6A9.392,9.392,0,0,1,3,2S-1.182,9.433,7,13a9.856,9.856,0,0,1-6,2,13.425,13.425,0,0,0,10.034,1.517,11,11,0,0,0,7.651-7.742,13.84,13.84,0,0,0,.5-3.753c0-.249,1.51-2.772,1.818-4.013Z" transform="translate(-0.25 -0.117)" fill="none" stroke="#fff" stroke-linecap="round" stroke-linejoin="round" stroke-width="1.5" fill-rule="evenodd"/>
</svg>
